<svg id="Capa_1" data-name="Capa 1" xmlns="http://www.w3.org/2000/svg" viewBox="0 0 1023 101"><g id="_2vYy9d.tif" data-name="2vYy9d.tif"><path d="M1413.79,125.5H789.87V24.5H1812.1v101H1557.54c2.75-2.36,2.66-5.15,1.06-8-1.44-2.59-3.24-5-4.59-7.63-.68-1.32-1.37-3.26-.86-4.37s2.55-1.53,4-1.71c9.21-1.12,18.48-1.81,27.64-3.21,5.14-.79,10.1-2.67,15.63-4.18-1.58,5.35-4,10.47,1,14.25s10.48,2,15.66-.1a27.07,27.07,0,0,0,5.16-3c2.55-1.8,5-3.79,7.49-5.72,4.07,8.36,7.76,10.19,16.77,7.78a87.4,87.4,0,0,0,11.6-4.39c3.27-1.4,6.41-3.1,10.52-5.11-.63,1.69-1.13,2.41-1.12,3.11,0,2.78-.76,6.27.62,8.16,2.19,3,6.14,2.24,9.06.33a114.61,114.61,0,0,0,11.45-8.66c2.92-2.5,5.46-5.44,8.91-8.93-.9,5.16-1.89,9.17-2.25,13.23-.42,4.66,1.51,6.22,6,4.8,5.68-1.81,11.24-4,16.79-6.2,5.35-2.11,10.61-4.41,14.23-5.93,4.42,4.06,7.44,8.11,11.49,10.21s9.18,3,13.9,3.23c11.63.57,22.2-3.74,32.32-8.78a190.21,190.21,0,0,0,19.13-11.56c1.07-.7,1.09-3,1.59-4.52-1.63,0-3.34-.26-4.86.17-1.17.33-2,1.71-3.15,2.35-8.91,5-17.48,10.9-26.91,14.66a41.57,41.57,0,0,1-31.18.07c-2.3-.92-4.36-3.94-5.11-6.41-.31-1,3-3.38,5-4.7,2.71-1.81,6.94-1.81,7.32-6.36-4.05-3.06-7.33-.27-10.64,1.26-11.11,5.15-22.15,10.47-33.27,15.61-2.48,1.15-5.19,1.8-8.87,3,2.52-10.76,3.75-20.63,9.44-29.33s11.33-17.47,16.25-26.61c2.92-5.45,4.75-11.56,6.38-17.56.87-3.2,1.2-7.69-3-8.93s-5.22,3.13-7,5.74a13.71,13.71,0,0,0-1.43,2.6c-4.93,12.22-10.6,24.22-14.55,36.75-4.8,15.27-15.65,25.25-27.41,34.78-1.49,1.21-3.61,1.66-5.43,2.46L1671,106.7c3.54-4.64,7.22-9.19,10.52-14,.9-1.31.65-3.4.93-5.14-1.66.25-3.6,0-4.91.83-4.81,2.93-9.2,6.59-14.15,9.21a97.76,97.76,0,0,1-17.76,7.59c-7.16,2.12-10.33-.76-10.49-8a45.44,45.44,0,0,0-.73-5.4L1632,90.19c-1,1.87-1.8,4-3.15,5.55-5.32,6.31-11.2,11.92-20.17,12.28-4.77.19-6.23-1.69-4.63-6.06,1.07-2.9,2.9-5.53,4.21-8.36a49.33,49.33,0,0,0,1.81-5.21c-2.13.09-4.39-.27-6.35.34-8.69,2.72-17.16,6.24-26,8.45-7.06,1.77-14.49,2.08-22.94,3.19,4.57-10.14,7.59-19,14.1-26.52,5.09-5.88,8.55-13.19,12.27-20.11.68-1.26-.87-3.69-1.39-5.58-1.57.92-3.74,1.46-4.61,2.82-3.31,5.14-6.68,10.32-9.12,15.88-4.19,9.52-11.82,15.58-20.49,20.13a212.06,212.06,0,0,1-54.15,19.53,69.66,69.66,0,0,1-18.74,1.23c-6.38-.41-8.16-4-6-10.07.71-2,2.1-3.73,2.93-5.68.47-1.09,1-3.15.5-3.46a6.67,6.67,0,0,0-4-.79c-1.09.07-2.12.9-3.21,1.27-8.32,2.79-16.52,6.07-25,8.16-7.06,1.74-14.48,2.07-23,3.19,4.62-10.18,7.67-19,14.15-26.56,5.17-6,8.59-13.53,12.38-20.6.6-1.1-1-3.34-1.55-5.06-1.47.8-3.53,1.22-4.32,2.45a133.15,133.15,0,0,0-9.15,15.85,36.09,36.09,0,0,1-13.71,15.93c-7.81,4.91-15.63,10-24,13.74-9.36,4.17-19.3,7.06-29.1,10.17-4.81,1.52-9.87,2.27-15.39,3.5-.54-7.3-1.28-14.26,3.22-19.18,13-14.19,20.82-30.82,25.84-49a33.35,33.35,0,0,0,1.28-9.24,5.57,5.57,0,0,0-2.67-4.12c-.91-.45-3.22.63-4.13,1.69a32.7,32.7,0,0,0-5.57,8.14C1356,53,1350,68,1344,82.9c-.59,1.45-1.1,3.29-2.26,4.08-6.42,4.39-12.83,8.87-19.65,12.6a61.47,61.47,0,0,1-15.24,5.83c-6.35,1.5-9.34-1.38-9.55-7.87-.06-1.87-.26-3.74-.4-5.61l-1.23-.61c-1.53,1.52-3.17,3-4.58,4.58-5.22,6-10.83,11.32-19.28,12.08-5.52.5-7.29-1.66-5.27-6.69,1.27-3.17,3.49-6,5-9,.59-1.15.54-2.63.78-4a20,20,0,0,0-4.6-.27c-1,.16-1.91,1.27-2.94,1.79-10,5.09-19.89,10.63-30.21,15.07-9.55,4.1-16.27,0-18.39-10-1.2-5.63-1.94-5.64-6.92-2.38a267.48,267.48,0,0,1-23.76,14.29c-5.18,2.66-8.57.6-10.07-5a44.34,44.34,0,0,1-1.2-9.28c-.26-5.17-.78-5.55-5.44-2.85-4.45,2.58-8.78,5.37-13.28,7.84-5.85,3.21-11.81,6.2-17.73,9.28l-.91-1.09c2.64-4.31,5.45-8.53,7.81-13,.7-1.31.09-3.3.08-5-1.62.74-4,1-4.75,2.29a164.09,164.09,0,0,0-8.62,16.13c-.68,1.47-.6,4.33.37,5.22s3.85,1,5.37.35c5.91-2.61,11.69-5.52,17.36-8.58,5.06-2.74,9.92-5.84,15.28-9,.19,1.36.32,2.12.41,2.89,1.71,14.87,8.91,18.95,22.51,12.75a20.75,20.75,0,0,0,2.69-1.28c5.42-3.5,10.8-7,16.2-10.57,9.54,14.65,13.37,15.86,30.2,8.9,6.66-2.76,13.16-5.9,18.51-8.31,1.08,4.07,1,9.13,3.48,11.85,3.82,4.17,9.59,2.49,14.5.56a34.41,34.41,0,0,0,6.51-3.58c2.44-1.64,4.68-3.56,7-5.36,4.89,8.6,8.88,10.59,18.42,7.21,7.77-2.75,15-6.85,22.51-10.45,2.57-1.24,5-2.76,8.09-4.48-.4,2.7-.73,4.47-.9,6.26a49.21,49.21,0,0,0-.24,5.43c.13,6.63,2.53,8.73,9.13,7.27,23-5.1,45.71-11.15,65.46-24.34-1.9,8.86-3,9.95-12.65,11.31,1,1.67,2,3.13,2.85,4.67.75,1.38,2.22,3.16,1.84,4.22C1403.44,117.1,1408.18,121.45,1413.79,125.5Zm-427.5-17.18-1.39-1.5c2.71-3.72,5.44-7.43,8.13-11.17,1.65-2.29,6.52-4.29,3-7.42-3-2.67-5.42,1.45-7.42,3.59-17.43,18.61-30,20.86-52.56,9.28-.14-.07-.29-.23-.43-.22-2,.08-4.23-.4-5.83.41-3.44,1.72-6.54,4.12-9.78,6.24a7.84,7.84,0,0,1,2-5.17c3.08-3.19,6.53-6,9.53-9.31,1.11-1.22,1.37-3.21,2-4.85-1.75,0-3.5-.15-5.24,0-.56,0-1,.84-1.6,1.13-11.26,5.56-22.39,11.43-33.87,16.5-5.46,2.42-9.66.39-12.65-4.68a24.87,24.87,0,0,1-2.66-6.82c-1.08-4.56-2.42-5.07-6.3-2.3-5.53,3.94-11,8.08-16.82,11.47-13.8,8-18.65,5.06-19-10.94-.1-5.1-.79-5.46-5.4-2.85-8.66,4.89-17.31,9.79-26,14.62-1.76,1-3.69,1.64-5.54,2.45,2.12-5.24,5-9.51,7.35-14,.69-1.31.13-3.27.14-4.93-1.62.71-4,1-4.75,2.19a165.15,165.15,0,0,0-8.61,16.13c-.69,1.49-.65,4.35.32,5.28s3.91,1.06,5.36.33c9.31-4.7,18.44-9.73,27.63-14.66,1.51-.82,3-1.7,4.81-2.75.67,3.27,1,5.87,1.74,8.38,2.34,8.55,7.67,11.75,16.1,8.92a80.67,80.67,0,0,0,14.23-6.94c3.52-2,6.67-4.67,10-7.07,7.38,13.73,13.07,15.88,27.3,10.36,5.49-2.14,10.85-4.59,16.85-7.14a41.4,41.4,0,0,0-2.36,5.89c-.37,1.63-.8,4.35,0,4.91a6.79,6.79,0,0,0,5.38.42,39.14,39.14,0,0,0,8.82-4.53c2.69-1.84,4.7-1.7,7.63-.21,13.38,6.83,26.87,8.24,40.14-.53a30,30,0,0,1,3.59-1.74c.13,7.61,4.08,10.23,10.57,6.69a67.55,67.55,0,0,0,11.5-8.55c3.12-2.7,5.78-5.9,9.38-9.66-.6,2.9-1,4.66-1.33,6.42s-.77,3.55-1,5.34c-1,7,.87,8.88,7.53,6.28,15.12-5.91,30.08-12.25,45-18.6,1.66-.71,2.81-2.58,4.19-3.92l-1-1.7c-2.43.56-5,.76-7.27,1.74-5.92,2.59-11.61,5.69-17.53,8.29-8.61,3.78-17.34,7.29-27.46,11.52,2.37-10.93,3.68-20.48,8.88-28.95,5.53-9,11.48-17.76,16.55-27,3-5.43,4.89-11.51,6.72-17.46,1.07-3.48,1.22-8-2.84-9.53s-5.31,2.9-7.1,5.49a24.8,24.8,0,0,0-2.55,4.8c-4.55,11.31-9.89,22.39-13.34,34-4.56,15.38-15.35,25.43-27,35.09C990.48,106.72,988.24,107.35,986.29,108.32Zm518.48-45.85c-11,0-21.55,0-32.08.13-.76,0-2.24,2-2,2.64.33,1.1,1.82,2.72,2.71,2.65q14.39-1.06,28.73-2.74C1503.15,65,1504,63.27,1504.77,62.47Zm308.1,49.25c-2.42-1.58-3.52-2.7-4.82-3-.73-.16-1.76,1.06-2.66,1.66,1,1,1.89,2.42,3.14,3C1809.17,113.74,1810.49,112.71,1812.87,111.72Z" transform="translate(-789.87 -24.5)" fill="transparent"/><path d="M1413.79,125.5c-5.61-4-10.35-8.4-7.45-16.4.38-1.06-1.09-2.84-1.84-4.22-.83-1.54-1.82-3-2.85-4.67,9.6-1.36,10.75-2.45,12.65-11.31-19.75,13.19-42.44,19.24-65.46,24.34-6.6,1.46-9-.64-9.13-7.27a49.21,49.21,0,0,1,.24-5.43c.17-1.79.5-3.56.9-6.26-3.08,1.72-5.52,3.24-8.09,4.48-7.46,3.6-14.74,7.7-22.51,10.45-9.54,3.38-13.53,1.39-18.42-7.21-2.35,1.8-4.59,3.72-7,5.36a34.41,34.41,0,0,1-6.51,3.58c-4.91,1.93-10.68,3.61-14.5-.56-2.5-2.72-2.4-7.78-3.48-11.85-5.35,2.41-11.85,5.55-18.51,8.31-16.83,7-20.66,5.75-30.2-8.9-5.4,3.53-10.78,7.07-16.2,10.57a20.75,20.75,0,0,1-2.69,1.28c-13.6,6.2-20.8,2.12-22.51-12.75-.09-.77-.22-1.53-.41-2.89-5.36,3.18-10.22,6.28-15.28,9-5.67,3.06-11.45,6-17.36,8.58-1.52.67-4.32.62-5.37-.35s-1-3.75-.37-5.22A164.09,164.09,0,0,1,1140,90.05c.77-1.25,3.13-1.55,4.75-2.29,0,1.69.62,3.68-.08,5-2.36,4.46-5.17,8.68-7.81,13l.91,1.09c5.92-3.08,11.88-6.07,17.73-9.28,4.5-2.47,8.83-5.26,13.28-7.84,4.66-2.7,5.18-2.32,5.44,2.85a44.34,44.34,0,0,0,1.2,9.28c1.5,5.6,4.89,7.66,10.07,5a267.48,267.48,0,0,0,23.76-14.29c5-3.26,5.72-3.25,6.92,2.38,2.12,10,8.84,14.06,18.39,10,10.32-4.44,20.17-10,30.21-15.07,1-.52,1.89-1.63,2.94-1.79a20,20,0,0,1,4.6.27c-.24,1.33-.19,2.81-.78,4-1.56,3.08-3.78,5.86-5,9-2,5-.25,7.19,5.27,6.69,8.45-.76,14.06-6.12,19.28-12.08,1.41-1.62,3-3.06,4.58-4.58l1.23.61c.14,1.87.34,3.74.4,5.61.21,6.49,3.2,9.37,9.55,7.87a61.47,61.47,0,0,0,15.24-5.83c6.82-3.73,13.23-8.21,19.65-12.6,1.16-.79,1.67-2.63,2.26-4.08C1350,68,1356,53,1362.2,38.08a32.7,32.7,0,0,1,5.57-8.14c.91-1.06,3.22-2.14,4.13-1.69a5.57,5.57,0,0,1,2.67,4.12,33.35,33.35,0,0,1-1.28,9.24c-5,18.18-12.86,34.81-25.84,49-4.5,4.92-3.76,11.88-3.22,19.18,5.52-1.23,10.58-2,15.39-3.5,9.8-3.11,19.74-6,29.1-10.17,8.39-3.73,16.21-8.83,24-13.74a36.09,36.09,0,0,0,13.71-15.93,133.15,133.15,0,0,1,9.15-15.85c.79-1.23,2.85-1.65,4.32-2.45.57,1.72,2.15,4,1.55,5.06-3.79,7.07-7.21,14.59-12.38,20.6-6.48,7.54-9.53,16.38-14.15,26.56,8.49-1.12,15.91-1.45,23-3.19,8.49-2.09,16.69-5.37,25-8.16,1.09-.37,2.12-1.2,3.21-1.27a6.67,6.67,0,0,1,4,.79c.45.31,0,2.37-.5,3.46-.83,2-2.22,3.69-2.93,5.68-2.18,6.06-.4,9.66,6,10.07a69.66,69.66,0,0,0,18.74-1.23A212.06,212.06,0,0,0,1545.56,87c8.67-4.55,16.3-10.61,20.49-20.13,2.44-5.56,5.81-10.74,9.12-15.88.87-1.36,3-1.9,4.61-2.82.52,1.89,2.07,4.32,1.39,5.58-3.72,6.92-7.18,14.23-12.27,20.11-6.51,7.52-9.53,16.38-14.1,26.52,8.45-1.11,15.88-1.42,22.94-3.19,8.81-2.21,17.28-5.73,26-8.45,2-.61,4.22-.25,6.35-.34a49.33,49.33,0,0,1-1.81,5.21c-1.31,2.83-3.14,5.46-4.21,8.36-1.6,4.37-.14,6.25,4.63,6.06,9-.36,14.85-6,20.17-12.28,1.35-1.6,2.11-3.68,3.15-5.55l2.45,1.57a45.44,45.44,0,0,1,.73,5.4c.16,7.27,3.33,10.15,10.49,8a97.76,97.76,0,0,0,17.76-7.59c4.95-2.62,9.34-6.28,14.15-9.21,1.31-.79,3.25-.58,4.91-.83-.28,1.74,0,3.83-.93,5.14-3.3,4.81-7,9.36-10.52,14l1.31,1.51c1.82-.8,3.94-1.25,5.43-2.46,11.76-9.53,22.61-19.51,27.41-34.78,4-12.53,9.62-24.53,14.55-36.75a13.71,13.71,0,0,1,1.43-2.6c1.82-2.61,3-6.95,7-5.74s3.85,5.73,3,8.93c-1.63,6-3.46,12.11-6.38,17.56-4.92,9.14-10.56,17.91-16.25,26.61s-6.92,18.57-9.44,29.33c3.68-1.25,6.39-1.9,8.87-3,11.12-5.14,22.16-10.46,33.27-15.61,3.31-1.53,6.59-4.32,10.64-1.26-.38,4.55-4.61,4.55-7.32,6.36-2,1.32-5.31,3.7-5,4.7.75,2.47,2.81,5.49,5.11,6.41a41.57,41.57,0,0,0,31.18-.07c9.43-3.76,18-9.65,26.91-14.66,1.14-.64,2-2,3.15-2.35,1.52-.43,3.23-.15,4.86-.17-.5,1.55-.52,3.82-1.59,4.52a190.21,190.21,0,0,1-19.13,11.56c-10.12,5-20.69,9.35-32.32,8.78-4.72-.24-9.8-1.11-13.9-3.23s-7.07-6.15-11.49-10.21c-3.62,1.52-8.88,3.82-14.23,5.93-5.55,2.19-11.11,4.39-16.79,6.2-4.5,1.42-6.43-.14-6-4.8.36-4.06,1.35-8.07,2.25-13.23-3.45,3.49-6,6.43-8.91,8.93a114.61,114.61,0,0,1-11.45,8.66c-2.92,1.91-6.87,2.69-9.06-.33-1.38-1.89-.58-5.38-.62-8.16,0-.7.49-1.42,1.12-3.11-4.11,2-7.25,3.71-10.52,5.11a87.4,87.4,0,0,1-11.6,4.39c-9,2.41-12.7.58-16.77-7.78-2.51,1.93-4.94,3.92-7.49,5.72a27.07,27.07,0,0,1-5.16,3c-5.18,2.14-10.68,3.82-15.66.1s-2.62-8.9-1-14.25c-5.53,1.51-10.49,3.39-15.63,4.18-9.16,1.4-18.43,2.09-27.64,3.21-1.44.18-3.52.73-4,1.71s.18,3,.86,4.37c1.35,2.64,3.15,5,4.59,7.63,1.6,2.87,1.69,5.66-1.06,8h-4c-4-3.54-9.5-6.38-7.9-13,.87-3.58.36-6.29-2.16-8.9-.84-.88-1.18-2.23-1.8-3.46,9.49-1.22,10.39-2.06,12.62-11.78-2.32,1.51-4.33,3.39-6.72,4.28-9.93,3.71-19.82,7.67-30,10.53-13,3.66-26.23,7.47-39.62,9.12-13,1.61-17.22-3.51-16.72-16.37-14.78,4.9-29.69,8.42-45.35,7.9-3.56-.11-3.82,2.56-2.3,5.2,1.63,2.86,3.55,5.57,5.19,8.43s1.64,5.64-1,8Zm-43.73-88.92-1.72-.74q-9.06,20.63-18.11,41.26l1.59.69C1360.39,65.13,1367.12,51.67,1370.06,36.58Zm357.93-2-2.38-1.14L1713,62.86l1.71.76Q1721.36,49.09,1728,34.56Z" transform="translate(-789.87 -24.5)"/><path d="M1417.78,125.5c2.62-2.41,2.63-5.19,1-8s-3.56-5.57-5.19-8.43c-1.52-2.64-1.26-5.31,2.3-5.2,15.66.52,30.57-3,45.35-7.9-.5,12.86,3.69,18,16.72,16.37,13.39-1.65,26.57-5.46,39.62-9.12,10.2-2.86,20.09-6.82,30-10.53,2.39-.89,4.4-2.77,6.72-4.28-2.23,9.72-3.13,10.56-12.62,11.78.62,1.23,1,2.58,1.8,3.46,2.52,2.61,3,5.32,2.16,8.9-1.6,6.62,3.9,9.46,7.9,13Z" transform="translate(-789.87 -24.5)" fill="transparent"/><path d="M986.29,108.32c2-1,4.19-1.6,5.82-2.95,11.64-9.66,22.43-19.71,27-35.09,3.45-11.64,8.79-22.72,13.34-34a24.8,24.8,0,0,1,2.55-4.8c1.79-2.59,3.06-7,7.1-5.49s3.91,6,2.84,9.53c-1.83,5.95-3.74,12-6.72,17.46-5.07,9.24-11,18-16.55,27-5.2,8.47-6.51,18-8.88,29,10.12-4.23,18.85-7.74,27.46-11.52,5.92-2.6,11.61-5.7,17.53-8.29,2.24-1,4.84-1.18,7.27-1.74l1,1.7c-1.38,1.34-2.53,3.21-4.19,3.92-14.95,6.35-29.91,12.69-45,18.6-6.66,2.6-8.58.7-7.53-6.28.27-1.79.68-3.56,1-5.34s.73-3.52,1.33-6.42c-3.6,3.76-6.26,7-9.38,9.66a67.55,67.55,0,0,1-11.5,8.55c-6.49,3.54-10.44.92-10.57-6.69a30,30,0,0,0-3.59,1.74c-13.27,8.77-26.76,7.36-40.14.53-2.93-1.49-4.94-1.63-7.63.21a39.14,39.14,0,0,1-8.82,4.53,6.79,6.79,0,0,1-5.38-.42c-.8-.56-.37-3.28,0-4.91a41.4,41.4,0,0,1,2.36-5.89c-6,2.55-11.36,5-16.85,7.14-14.23,5.52-19.92,3.37-27.3-10.36-3.36,2.4-6.51,5-10,7.07a80.67,80.67,0,0,1-14.23,6.94c-8.43,2.83-13.76-.37-16.1-8.92-.69-2.51-1.07-5.11-1.74-8.38-1.83,1-3.3,1.93-4.81,2.75-9.19,4.93-18.32,10-27.63,14.66-1.45.73-4.35.64-5.36-.33s-1-3.79-.32-5.28A165.15,165.15,0,0,1,801.23,90c.75-1.23,3.13-1.48,4.75-2.19,0,1.66.55,3.62-.14,4.93-2.39,4.5-5.23,8.77-7.35,14,1.85-.81,3.78-1.47,5.54-2.45,8.69-4.83,17.34-9.73,26-14.62,4.61-2.61,5.3-2.25,5.4,2.85.3,16,5.15,18.92,19,10.94,5.86-3.39,11.29-7.53,16.82-11.47,3.88-2.77,5.22-2.26,6.3,2.3a24.87,24.87,0,0,0,2.66,6.82c3,5.07,7.19,7.1,12.65,4.68,11.48-5.07,22.61-10.94,33.87-16.5.58-.29,1-1.09,1.6-1.13,1.74-.12,3.49,0,5.24,0-.65,1.64-.91,3.63-2,4.85-3,3.27-6.45,6.12-9.53,9.31a7.84,7.84,0,0,0-2,5.17c3.24-2.12,6.34-4.52,9.78-6.24,1.6-.81,3.87-.33,5.83-.41.14,0,.29.15.43.22,22.56,11.58,35.13,9.33,52.56-9.28,2-2.14,4.38-6.26,7.42-3.59,3.56,3.13-1.31,5.13-3,7.42-2.69,3.74-5.42,7.45-8.13,11.17ZM1027.08,62l1.19.56c5.16-9,10.7-17.9,12.27-28.44l-1.27-.54Z" transform="translate(-789.87 -24.5)"/><path d="M1504.77,62.47c-.76.8-1.62,2.55-2.68,2.68q-14.33,1.68-28.73,2.74c-.89.07-2.38-1.55-2.71-2.65-.2-.66,1.28-2.63,2-2.64C1483.22,62.42,1493.76,62.47,1504.77,62.47Z" transform="translate(-789.87 -24.5)"/><path d="M1812.87,111.72c-2.38,1-3.7,2-4.34,1.7-1.25-.61-2.11-2-3.14-3,.9-.6,1.93-1.82,2.66-1.66C1809.35,109,1810.45,110.14,1812.87,111.72Z" transform="translate(-789.87 -24.5)"/><path d="M1370.06,36.58c-2.94,15.09-9.67,28.55-18.24,41.21l-1.59-.69q9-20.62,18.11-41.26Z" transform="translate(-789.87 -24.5)" fill="transparent"/><path d="M1728,34.56q-6.65,14.52-13.28,29.06l-1.71-.76,12.61-29.44Z" transform="translate(-789.87 -24.5)" fill="transparent"/><path d="M1027.08,62l12.19-28.42,1.27.54c-1.57,10.54-7.11,19.41-12.27,28.44Z" transform="translate(-789.87 -24.5)" fill="transparent"/></g></svg>